<svg width="135" height="27" viewBox="0 0 135 27" fill="none" xmlns="http://www.w3.org/2000/svg">
<g clip-path="url(#clip0)">
<path d="M8.13937 11.3447L13.3824 6.10191L18.6282 11.3475L21.6789 8.29674L13.3824 0L5.08862 8.29396L8.13937 11.3447Z" fill="#F3BA2F"/>
<path d="M5.98502 13.4984L2.93433 10.4478L-0.116514 13.4986L2.93418 16.5493L5.98502 13.4984Z" fill="#F3BA2F"/>
<path d="M8.13945 15.6532L13.3825 20.896L18.628 15.6506L21.6805 18.6997L21.679 18.7014L13.3825 26.9979L5.08849 18.7042L5.08423 18.6999L8.13945 15.6532Z" fill="#F3BA2F"/>
<path d="M23.831 16.5504L26.8818 13.4995L23.8311 10.4488L20.7803 13.4997L23.831 16.5504Z" fill="#F3BA2F"/>
<path d="M16.4768 13.4973H16.4781L13.3824 10.4016L11.0946 12.6894H11.0944L10.8317 12.9523L10.2894 13.4946L10.2852 13.4988L10.2894 13.5033L13.3824 16.5963L16.4781 13.5005L16.4796 13.4988L16.4768 13.4973Z" fill="#F3BA2F"/>
<path d="M31.6377 6.54175H38.2729C39.9197 6.54175 41.165 6.96438 42.009 7.80964C42.6621 8.46427 42.9886 9.27563 42.9886 10.2435V10.2844C42.9886 10.6934 42.9381 11.0549 42.8363 11.3683C42.7348 11.6822 42.5992 11.9647 42.4297 12.217C42.2606 12.4695 42.064 12.691 41.8405 12.8816C41.6169 13.0727 41.3765 13.2365 41.1192 13.3725C41.9469 13.6864 42.5986 14.1122 43.0737 14.6508C43.5485 15.1897 43.7863 15.9362 43.7863 16.8904V16.9312C43.7863 17.5858 43.6605 18.1583 43.4087 18.6494C43.1568 19.1401 42.796 19.5493 42.3263 19.8766C41.8565 20.2039 41.2917 20.4491 40.6315 20.6129C39.9713 20.7764 39.2397 20.8581 38.4369 20.8581H31.6377V6.54175ZM37.6095 12.3296C38.3051 12.3296 38.8574 12.2106 39.2662 11.9718C39.6751 11.7332 39.8796 11.3478 39.8796 10.8162V10.7753C39.8796 10.2983 39.7022 9.93367 39.3478 9.6812C38.9932 9.42894 38.4819 9.30271 37.814 9.30271H34.7053V12.3296H37.6095ZM38.4482 18.0973C39.1435 18.0973 39.6886 17.9715 40.0843 17.7191C40.4797 17.4668 40.6776 17.0747 40.6776 16.5429V16.5021C40.6776 16.0249 40.4933 15.6466 40.1253 15.3669C39.757 15.0878 39.164 14.9479 38.3458 14.9479H34.7053V18.0976H38.4482V18.0973Z" fill="#F3BA2F"/>
<path d="M47.7378 6.54175H50.8877V20.8585H47.7378V6.54175Z" fill="#F3BA2F"/>
<path d="M55.6584 6.54175H58.5623L65.2708 15.3569V6.54175H68.3796V20.8585H65.7005L58.767 11.7572V20.8585H55.6584V6.54175Z" fill="#F3BA2F"/>
<path d="M77.9155 6.4397H80.8196L86.9556 20.8586H83.6626L82.3536 17.6477H76.2996L74.9908 20.8586H71.7793L77.9155 6.4397ZM81.2288 14.8659L79.3265 10.2233L77.4249 14.8659H81.2288Z" fill="#F3BA2F"/>
<path d="M90.3555 6.54175H93.2599L99.9681 15.3569V6.54175H103.077V20.8585H100.398L93.4642 11.7572V20.8585H90.3555V6.54175Z" fill="#F3BA2F"/>
<path d="M114.412 21.1038C113.362 21.1038 112.387 20.9128 111.487 20.5313C110.587 20.1498 109.81 19.628 109.156 18.9666C108.501 18.3053 107.99 17.5247 107.622 16.6248C107.254 15.7248 107.07 14.7635 107.07 13.7408V13.7001C107.07 12.6774 107.254 11.7198 107.622 10.8266C107.99 9.93353 108.501 9.14946 109.156 8.47458C109.81 7.79969 110.594 7.26767 111.508 6.87916C112.421 6.49064 113.431 6.29639 114.535 6.29639C115.203 6.29639 115.813 6.35119 116.365 6.45994C116.917 6.56933 117.418 6.71902 117.868 6.90986C118.319 7.10092 118.734 7.33271 119.116 7.60522C119.497 7.87816 119.852 8.17797 120.179 8.50528L118.176 10.8163C117.616 10.312 117.047 9.91625 116.467 9.63009C115.888 9.34393 115.237 9.20064 114.514 9.20064C113.914 9.20064 113.359 9.31664 112.848 9.54842C112.336 9.78021 111.896 10.1005 111.528 10.5095C111.16 10.9185 110.874 11.3925 110.669 11.9309C110.465 12.4697 110.363 13.0457 110.363 13.6592V13.6999C110.363 14.3134 110.465 14.8931 110.669 15.4382C110.874 15.9838 111.156 16.4608 111.518 16.8698C111.879 17.2788 112.316 17.6029 112.827 17.8415C113.338 18.0804 113.901 18.1993 114.514 18.1993C115.333 18.1993 116.024 18.0494 116.59 17.7494C117.156 17.4498 117.719 17.0406 118.277 16.5223L120.282 18.5471C119.914 18.9427 119.531 19.2973 119.137 19.6105C118.741 19.9244 118.308 20.1935 117.838 20.4187C117.367 20.6434 116.852 20.8142 116.294 20.9298C115.734 21.0456 115.107 21.1038 114.412 21.1038Z" fill="#F3BA2F"/>
<path d="M123.989 6.54175H134.767V9.34386H127.098V12.2481H133.847V15.05H127.098V18.0566H134.87V20.8585H123.989V6.54175Z" fill="#F3BA2F"/>
</g>
<defs>
<clipPath id="clip0">
<rect width="134.767" height="26.9978" fill="white"/>
</clipPath>
</defs>
</svg>
