<svg width="103" height="27" viewBox="0 0 103 27" fill="none" xmlns="http://www.w3.org/2000/svg">
<path fill-rule="evenodd" clip-rule="evenodd" d="M39.0715 5.94458C40.9363 5.94458 42.4281 6.51651 43.9087 7.7985C44.03 7.9058 44.0985 8.0464 44.103 8.19519C44.1074 8.34363 44.0486 8.48648 43.9373 8.59748L43.0867 9.46541C42.9685 9.6124 42.8389 9.65007 42.7504 9.65545C42.6531 9.66184 42.5034 9.63471 42.3418 9.47348C41.4431 8.69188 40.2247 8.22053 39.0912 8.22053C36.4876 8.22053 34.3695 10.4129 34.3695 13.1082C34.3695 15.7925 36.4962 17.9762 39.1104 17.9762C40.5387 17.9762 41.5157 17.3763 42.3588 16.7279C42.5807 16.5557 42.8515 16.5492 43.0476 16.7126L43.9555 17.5981C44.0473 17.6779 44.1042 17.801 44.1087 17.9385C44.1138 18.0969 44.0497 18.2585 43.9371 18.3707C42.6264 19.6403 40.9444 20.3104 39.0715 20.3104C35.0908 20.3104 31.8521 17.097 31.8521 13.1471C31.8521 9.17568 35.0908 5.94458 39.0715 5.94458ZM74.3663 5.94458C76.2312 5.94458 77.7228 6.51651 79.2034 7.7985C79.3247 7.9058 79.393 8.04629 79.3976 8.19519C79.4022 8.34352 79.3433 8.48625 79.2321 8.59748L78.3813 9.46541C78.2631 9.6124 78.1336 9.65007 78.045 9.65545C77.9471 9.66184 77.7982 9.63471 77.6364 9.47348C76.7378 8.69188 75.5193 8.22053 74.3855 8.22053C71.7821 8.22053 69.6641 10.4129 69.6641 13.1082C69.6641 15.7925 71.791 17.9762 74.4052 17.9762C75.8334 17.9762 76.8104 17.3763 77.6535 16.7279C77.8755 16.5557 78.1462 16.5492 78.3423 16.7126L79.2502 17.5981C79.3419 17.6779 79.3988 17.801 79.4035 17.9384C79.4087 18.0967 79.3445 18.2583 79.2321 18.3705C77.9211 19.6403 76.239 20.3104 74.3663 20.3104C70.3854 20.3104 67.1468 17.097 67.1468 13.1471C67.1468 9.17568 70.3854 5.94458 74.3663 5.94458ZM49.2364 6.13937C49.5275 6.13937 49.7828 6.39366 49.7828 6.68349V19.5716C49.7828 19.8614 49.5275 20.1159 49.2364 20.1159H47.9486C47.6576 20.1159 47.4023 19.8614 47.4023 19.5716V6.68349C47.4023 6.39366 47.6576 6.13937 47.9486 6.13937H49.2364ZM60.0452 6.13937C62.4876 6.13937 64.4746 8.08657 64.4746 10.4798C64.4746 12.216 63.4 13.7476 61.6568 14.5177L64.239 19.2946C64.3374 19.4768 64.3361 19.6931 64.2357 19.8594C64.1373 20.0223 63.9613 20.1159 63.7526 20.1159H62.2306C62.0022 20.1159 61.8272 19.975 61.7612 19.8443L59.2146 14.7814H56.5532V19.5716C56.5532 19.8614 56.2977 20.1159 56.0066 20.1159H54.7382C54.437 20.1159 54.1919 19.8716 54.1919 19.5716V6.68349C54.1919 6.38357 54.437 6.13937 54.7382 6.13937H60.0452ZM84.5311 6.13936C84.8222 6.13936 85.0776 6.39365 85.0776 6.68348V17.9568H90.1893C90.4907 17.9568 90.7359 18.201 90.7359 18.5009V19.5716C90.7359 19.8717 90.4907 20.1159 90.1893 20.1159H83.2433C82.9421 20.1159 82.697 19.8717 82.697 19.5716V6.68348C82.697 6.38356 82.9421 6.13936 83.2433 6.13936H84.5311ZM101.759 6.13938C102.061 6.13938 102.306 6.38358 102.306 6.6835V7.77377C102.306 8.0738 102.061 8.318 101.759 8.318H95.7695V11.941H100.803C101.094 11.941 101.35 12.1954 101.35 12.4852V13.5754C101.35 13.8754 101.105 14.1196 100.803 14.1196H95.7695V17.9568H101.759C102.061 17.9568 102.306 18.201 102.306 18.5008V19.5716C102.306 19.8716 102.061 20.1159 101.759 20.1159H93.9547C93.6534 20.1159 93.4083 19.8716 93.4083 19.5716V6.6835C93.4083 6.38358 93.6534 6.13938 93.9547 6.13938H101.759ZM59.8893 8.37641H56.5921V12.7585H59.8893C61.0844 12.7585 62.094 11.733 62.094 10.5188C62.094 9.35747 61.0844 8.37641 59.8893 8.37641Z" fill="#3D3652"/>
<path fill-rule="evenodd" clip-rule="evenodd" d="M23.0449 5.46607L21.7381 6.76927C21.5403 6.96652 21.5121 7.27408 21.6654 7.50743C22.1441 8.23691 22.5255 9.02217 22.8026 9.8441L22.8061 9.84072C23.1602 10.8896 23.3434 11.9963 23.3434 13.1138C23.3434 18.7587 18.7385 23.3511 13.0784 23.3511C11.375 23.3511 9.73879 22.943 8.26747 22.16L10.4822 19.9513C11.3086 20.2638 12.1893 20.4261 13.0784 20.4261C17.1213 20.4261 20.4105 17.1458 20.4105 13.1138C20.4105 12.8619 20.3953 12.6092 20.3688 12.3573C20.2806 11.5097 20.0458 10.6879 19.677 9.92728C19.5009 9.56414 19.0184 9.48153 18.7324 9.76689L17.4059 11.0899C17.2625 11.2328 17.2033 11.4396 17.2495 11.6366L17.3607 12.1116C17.4383 12.4428 17.4776 12.7801 17.4776 13.1138C17.4776 15.533 15.5042 17.5012 13.0784 17.5012C12.3149 17.5012 11.5618 17.3016 10.9004 16.9238L10.3168 16.5903C10.087 16.4591 9.79772 16.4975 9.61048 16.6842L4.20254 22.0773C3.95192 22.3272 3.9792 22.74 4.26041 22.9552L5.05698 23.5642C7.37684 25.3384 10.1508 26.276 13.0784 26.276C20.3556 26.276 26.2761 20.3714 26.2761 13.1138C26.2761 10.8225 25.676 8.56512 24.5406 6.58581L23.9688 5.58921C23.8584 5.39668 23.6597 5.29468 23.4588 5.29468C23.3105 5.29468 23.161 5.35026 23.0449 5.46607Z" fill="url(#paint0_linear_2903_11728)"/>
<path fill-rule="evenodd" clip-rule="evenodd" d="M13.2552 0C5.94625 0 0 5.90453 0 13.1622C0 15.4538 0.602653 17.7112 1.74304 19.6902L2.31741 20.6868C2.51023 21.0215 2.9707 21.0826 3.24525 20.8099L4.55755 19.5069C4.75611 19.3097 4.78439 19.0023 4.63074 18.7689C4.15044 18.0399 3.76685 17.254 3.48841 16.4321L3.4852 16.4353C3.1296 15.3864 2.94552 14.2798 2.94552 13.1622C2.94552 7.51741 7.57053 2.92486 13.2552 2.92486C14.9658 2.92486 16.6091 3.33288 18.087 4.11602L15.8627 6.32471C15.0327 6.01223 14.1481 5.84982 13.2552 5.84982C9.19461 5.84982 5.89124 9.1302 5.89124 13.1622C5.89124 13.2842 5.89571 13.4064 5.90193 13.5286C5.90397 13.5682 5.9066 13.6077 5.90932 13.6473C5.91573 13.7426 5.924 13.838 5.9343 13.9332C6.02439 14.7738 6.26007 15.5915 6.6283 16.3483C6.80499 16.7115 7.28975 16.7939 7.57694 16.5085L8.90878 15.1862C9.05272 15.0432 9.1121 14.8364 9.06584 14.6395L8.95407 14.1644C8.87632 13.8335 8.83686 13.4964 8.83686 13.1622C8.83686 10.743 10.8189 8.77477 13.2552 8.77477C14.022 8.77477 14.7783 8.97444 15.4423 9.35216L16.0288 9.68577C16.2595 9.81712 16.5501 9.77852 16.7382 9.59188L22.1695 4.19872C22.4212 3.94868 22.3939 3.53593 22.1115 3.32082L21.3113 2.71178C18.9812 0.937734 16.1953 0 13.2552 0Z" fill="url(#paint1_linear_2903_11728)"/>
<defs>
<linearGradient id="paint0_linear_2903_11728" x1="21.8603" y1="9.61051" x2="4.9929" y2="26.1018" gradientUnits="userSpaceOnUse">
<stop stop-color="#5FBFFF"/>
<stop offset="1" stop-color="#B090F5"/>
</linearGradient>
<linearGradient id="paint1_linear_2903_11728" x1="5.42069e-07" y1="19.7424" x2="23.5945" y2="-3.3478" gradientUnits="userSpaceOnUse">
<stop stop-color="#68D7FA"/>
<stop offset="1" stop-color="#7EF1B3"/>
</linearGradient>
</defs>
</svg>
