<?xml version="1.0" encoding="utf-8"?>
<!-- Generator: Adobe Illustrator 26.0.3, SVG Export Plug-In . SVG Version: 6.00 Build 0)  -->
<svg version="1.1" id="Layer_1" xmlns="http://www.w3.org/2000/svg" xmlns:xlink="http://www.w3.org/1999/xlink" x="0px" y="0px"
	 viewBox="0 0 904.5 109.8" style="enable-background:new 0 0 904.5 109.8;" xml:space="preserve">
<style type="text/css">
	.st0{fill:#F7F9F9;}
	.st1{fill:#0C1732;}
</style>
<g>
	<path class="st1" d="M829.8,2.1h-25.9l37.6,53.5l-36.4,52H831l35.8-52L829.8,2.1z M878.7,2.1l-15.3,21.8L876.2,42l28.3-39.9H878.7z
		 M876.2,67.7l-12.8,18.1l15.3,21.8h25.7L876.2,67.7z"/>
	<path class="st1" d="M0,2v19.1h76.5c3.2,0,5.6-1.6,7.1-4.9L89.1,2H0z M0,45.8v62.3h22v-40c0-1.1,0.4-2,1.1-2.7
		c0.8-0.7,1.6-1.1,2.7-1.1h30.8c3.2,0,5.6-1.7,7.1-5.1l4.7-13.3H0z"/>
	<path class="st1" d="M167.9,9.6c-2.4-5.1-6.2-7.6-11.2-7.6h-17.3L95.8,108.1h22.9l33-84.6l32.4,84.6H208L167.9,9.6z"/>
	<path class="st1" d="M273.9,88.7V9.6c0-2.1-0.7-3.9-2.2-5.4c-1.5-1.5-3.3-2.2-5.4-2.2h-14.4v106.1h67.3c3,0,5.4-1.6,7-4.8l5.8-14.6
		H273.9z"/>
	<path class="st1" d="M446.4,80.5c-1.5,0-3,0.5-4.5,1.5c-6.6,5-14,7.4-22.1,7.4c-9.9,0-18.1-3.3-24.7-9.9
		c-6.6-6.6-9.8-14.7-9.8-24.3c0-9.9,3.3-18.1,9.8-24.7c6.5-6.6,14.6-9.9,24.2-9.9c8.4,0,16,2.6,22.7,7.9c1.5,1,3,1.5,4.5,1.5
		c1.5,0,3-0.4,4.4-1.4l12.3-8.5c-4.8-5.9-11.2-10.6-18.9-14.3c-7.8-3.6-16.1-5.5-25-5.5c-10.4,0-19.9,2.4-28.5,7.2
		c-8.6,4.8-15.4,11.3-20.5,19.6c-5.1,8.2-7.6,17.6-7.6,28c0,9.8,2.4,18.8,7.2,27.1c4.8,8.3,11.4,14.9,19.9,19.9
		c8.5,5,18.3,7.5,29.4,7.5c8.4,0,16.4-1.8,24.2-5.3c7.7-3.5,14.2-8.3,19.3-14.3l-11.8-8.3C449.4,81,447.9,80.5,446.4,80.5"/>
	<path class="st1" d="M755.9,2h-20.6v76.2c-10.6-15.4-34.6-50.5-46-67.1c-3.9-5.7-10.3-9.1-17.1-9.1l-10.5,0v106.1h20.8V37.2
		L723,98.8c3.9,5.8,10.4,9.4,17.4,9.4h15.5V2z"/>
	<path class="st1" d="M603.1,25.7c-5.1-8.2-12-14.6-20.5-19.3c-5.9-3.2-12.1-5.3-18.7-6.3v20.6c5.7,1.5,10.7,4.4,14.9,8.8
		c6.3,6.6,9.5,14.8,9.5,24.6c0,9.8-3.2,18-9.5,24.6c-4.2,4.4-9.2,7.3-14.9,8.8v20.6c7-1,13.6-3.3,19.5-6.8
		c8.5-5,15.2-11.6,20.1-19.9c4.9-8.3,7.4-17.4,7.4-27.4C610.9,43.4,608.3,33.9,603.1,25.7 M505.9,26.6c-4.9,8.3-7.4,17.4-7.4,27.4
		c0,10.7,2.6,20.2,7.8,28.4c5.2,8.2,12.1,14.7,20.6,19.3c5.9,3.2,12,5.3,18.5,6.3V87.5c-5.6-1.5-10.5-4.4-14.7-8.8
		c-6.4-6.6-9.6-14.8-9.6-24.6c0-9.9,3.2-18.1,9.6-24.7c4.2-4.3,9.2-7.2,14.7-8.7V0c-7,1-13.5,3.3-19.5,6.8
		C517.5,11.7,510.8,18.3,505.9,26.6"/>
</g>
</svg>
