<?xml version="1.0" encoding="utf-8"?>
<!-- Generator: Adobe Illustrator 25.0.0, SVG Export Plug-In . SVG Version: 6.00 Build 0)  -->
<svg width="129" height="45" version="1.1" id="Camada_1" xmlns="http://www.w3.org/2000/svg" xmlns:xlink="http://www.w3.org/1999/xlink" x="0px" y="0px"
	 viewBox="0 0 129 45" style="enable-background:new 0 0 129 45;" xml:space="preserve">
<style type="text/css">
	.st0{clip-path:url(#SVGID_2_);}
	.st1{fill:#111111;}
</style>
<g>
	<defs>
		<rect id="SVGID_1_" width="129" height="45"/>
	</defs>
	<clipPath id="SVGID_2_">
		<use xlink:href="#SVGID_1_"  style="overflow:visible;"/>
	</clipPath>
	<g class="st0">
		<path class="st1" d="M42.5,30.2h2.7V20.1l4.1,10.1h2.2l4.1-10.1v10.1h2.7V14.9H55l-4.6,11.3l-4.6-11.3h-3.3V30.2z"/>
		<path class="st1" d="M65.6,30.3c3.3,0,5.7-2.4,5.7-5.7c0-3.3-2.4-5.7-5.7-5.7c-3.3,0-5.7,2.4-5.7,5.7
			C59.9,27.9,62.3,30.3,65.6,30.3z M65.6,28c-1.8,0-3-1.4-3-3.4s1.2-3.4,3-3.4c1.8,0,3,1.4,3,3.4S67.4,28,65.6,28z"/>
		<path class="st1" d="M77.8,30.3c3.3,0,5.7-2.4,5.7-5.7c0-3.3-2.4-5.7-5.7-5.7c-3.3,0-5.7,2.4-5.7,5.7
			C72.1,27.9,74.5,30.3,77.8,30.3z M77.8,28c-1.8,0-3-1.4-3-3.4s1.2-3.4,3-3.4c1.8,0,3,1.4,3,3.4S79.6,28,77.8,28z"/>
		<path class="st1" d="M84.9,30.2h2.7v-6c0-1.6,1-2.8,2.5-2.8c1.4,0,2.3,1,2.3,2.5v6.2H95v-6.8c0-2.6-1.6-4.4-4.1-4.4
			c-1.6,0-2.8,0.7-3.4,1.9v-1.7h-2.7V30.2z"/>
		<path class="st1" d="M97.2,30.2h2.9v-5.8h3.2c3.2,0,5-2,5-4.7c0-2.8-1.9-4.7-5-4.7h-6.1V30.2z M100.1,22v-4.6h3.1
			c1.7,0,2.4,1.1,2.4,2.3s-0.7,2.3-2.4,2.3H100.1z"/>
		<path class="st1" d="M113.5,19c-2.8,0-4.7,1.7-4.8,3.9h2.4c0-1,0.9-1.9,2.3-1.9c1.4,0,2.2,0.8,2.2,1.8c0,0.4-0.3,0.7-0.8,0.7h-2
			c-2.4,0-4.1,1.3-4.1,3.5c0,1.9,1.5,3.3,3.6,3.3c1.6,0,2.8-0.7,3.3-1.8v1.6h2.6v-7.1C118.2,20.6,116.3,19,113.5,19z M113,28.4
			c-1,0-1.7-0.6-1.7-1.4c0-1,0.8-1.6,1.9-1.6h2.4v0.2C115.6,27.2,114.6,28.4,113,28.4z"/>
		<path class="st1" d="M129,19.2h-2.7l-2.5,7.5l-2.5-7.5h-2.7l4,11l-1.5,4.4h2.5l1.7-5L129,19.2z"/>
		<path class="st1" d="M31.6,23.1c0,8.8-7.1,15.9-15.8,15.9C7.1,39,0,31.9,0,23.1C0,14.4,7.1,7.3,15.8,7.3
			C24.5,7.3,31.6,14.4,31.6,23.1z"/>
		<path class="st1" d="M41.1,5.7c0,3.1-2.5,5.7-5.6,5.7c-3.1,0-5.6-2.5-5.6-5.7S32.3,0,35.4,0C38.5,0,41.1,2.5,41.1,5.7z"/>
	</g>
</g>
</svg>
