<svg width="154" height="25" viewBox="0 0 154 25" fill="none" xmlns="http://www.w3.org/2000/svg">
<path d="M98.8571 7.93291V5.42679L101.553 4.62939V7.97088H103.793V10.6289H101.553V15.2234C101.553 15.717 101.629 16.0208 101.857 16.2107C102.085 16.4005 102.388 16.4765 102.844 16.4765C103.034 16.4765 103.186 16.4765 103.376 16.4765C103.566 16.4765 103.679 16.4385 103.793 16.4005V18.9066C103.642 18.9446 103.452 19.0585 103.148 19.0965C102.882 19.1345 102.502 19.1724 102.085 19.1724C101.021 19.1724 100.148 18.8687 99.5026 18.2611C98.8571 17.6915 98.5534 16.8182 98.5534 15.755V10.5909H96.5789V7.93291H98.8571Z" fill="#0B0E14"/>
<path d="M90.9588 7.93291V5.42679L93.6548 4.62939V7.97088H95.8951V10.6289H93.6548V15.2234C93.6548 15.717 93.7307 16.0208 93.9586 16.2107C94.1864 16.4005 94.4902 16.4765 94.9458 16.4765C95.1357 16.4765 95.2876 16.4765 95.4774 16.4765C95.6673 16.4765 95.7812 16.4385 95.8951 16.4005V18.9066C95.7432 18.9446 95.5534 19.0585 95.2496 19.0965C94.9838 19.1345 94.6041 19.1724 94.1864 19.1724C93.1232 19.1724 92.2499 18.8687 91.6043 18.2611C90.9588 17.6915 90.6551 16.8182 90.6551 15.755V10.5909H88.6426V7.93291H90.9588Z" fill="#0B0E14"/>
<path d="M50.2157 7.93303V5.42692L52.9116 4.59155V7.93303H55.1519V10.591H52.9116V15.2235C52.9116 15.7172 52.9876 16.0209 53.2154 16.2108C53.4432 16.4007 53.747 16.4766 54.2026 16.4766C54.3925 16.4766 54.5444 16.4766 54.7342 16.4766C54.9241 16.4766 55.038 16.4386 55.1519 16.4007V18.9068C55 18.9447 54.8102 19.0586 54.5064 19.0966C54.2406 19.1346 53.8609 19.1726 53.4432 19.1726C52.38 19.1726 51.5067 18.8688 50.8612 18.2612C50.2157 17.6917 49.9119 16.8183 49.9119 15.7551V10.591H47.9753V7.93303H50.2157Z" fill="#0B0E14"/>
<path d="M64.303 10.8946C63.5815 10.8187 62.5563 10.5908 61.3792 11.4642C61.1134 11.692 60.9235 11.9958 60.7337 12.4135C60.5818 12.8312 60.5058 13.3248 60.5058 13.8944V18.9445H57.5061V7.89488H60.4299C60.4299 8.42648 60.4299 8.92011 60.4299 9.48968C60.5818 9.29983 60.6957 9.072 60.8476 8.92011C61.0754 8.69228 61.3032 8.50243 61.5311 8.35054C62.2525 7.89489 63.0879 7.81894 63.9233 7.85691C63.9992 7.85691 64.1511 7.85691 64.265 7.89488V10.8946H64.303Z" fill="#0B0E14"/>
<path d="M110.821 8C112.909 8 115.226 9.13914 116.175 11.5313C116.631 12.7084 116.858 14.645 116.175 16.2778C115.681 17.4549 114.694 18.7079 113.099 19.3914C111.922 19.885 110.1 20.0749 108.505 19.3914C107.783 19.0876 107.214 18.6699 106.644 18.1763C106.113 17.6447 105.733 17.0372 105.429 16.3157C104.935 15.1386 104.784 13.2021 105.429 11.5693C105.733 10.8479 106.113 10.2023 106.644 9.70871C107.631 8.72146 109.074 8 110.821 8ZM110.821 17.0372C111.163 17.0372 111.542 16.9612 111.884 16.8094C112.226 16.6575 112.53 16.5056 112.796 16.2398C113.061 15.974 113.251 15.6702 113.441 15.2525C113.669 14.683 113.783 13.5058 113.441 12.5186C113.251 12.1009 113.099 11.7971 112.796 11.5313C112.492 11.2655 112.264 11.0757 111.884 10.9618C111.429 10.8099 110.897 10.62 109.758 10.9618C109.416 11.1136 109.112 11.2655 108.846 11.5313C108.163 12.1768 107.669 13.9235 108.201 15.2525C108.353 15.6702 108.543 15.974 108.846 16.2398C109.112 16.5056 109.378 16.6954 109.758 16.8094C110.138 16.9612 110.441 17.0372 110.821 17.0372Z" fill="#0B0E14"/>
<path d="M125.551 12.6036L130.032 18.9828H126.386L123.462 14.73L122.209 16.021V18.9448H119.21V2.69312H122.209V12.072L126.045 7.97113H129.956L125.551 12.6036Z" fill="#0B0E14"/>
<path d="M141.233 15.793C141.081 16.2867 140.891 16.7423 140.588 17.16C140.322 17.6157 139.942 17.9574 139.524 18.2991C137.664 19.7041 134.36 19.818 132.196 17.7675C130.563 16.2487 129.956 13.4008 130.943 11.0086C131.437 9.83152 132.386 8.65441 133.867 8.0089C135.575 7.24947 138.423 7.4773 139.942 9.14804C140.967 10.2872 141.499 11.9959 141.385 13.9704C141.385 14.1603 141.347 14.2742 141.347 14.2742H133.411C133.411 14.8437 133.677 15.3374 133.981 15.7551C134.398 16.2867 135.196 16.7423 135.993 16.7803C136.639 16.8183 137.36 16.7043 137.854 16.3246C138.271 16.0209 138.537 15.6032 138.727 15.1095L141.233 15.793ZM138.461 12.1857C138.461 11.3883 137.93 10.591 137.284 10.2872C136.487 9.86949 135.424 9.90747 134.702 10.3252C134.019 10.6669 133.525 11.3504 133.487 12.2237C134.626 12.2237 135.727 12.2237 136.866 12.2237C137.36 12.1857 137.93 12.1857 138.461 12.1857Z" fill="#0B0E14"/>
<path d="M146.739 19.0207H143.739V7.9331H146.663V9.30007C147.005 8.7305 147.46 8.31281 148.068 8.04701C149.435 7.4015 151.182 7.51541 152.359 8.38876C153.498 9.2621 153.84 10.6291 153.84 11.996V18.9828H150.84V12.5276C150.84 11.3505 150.156 10.4012 148.941 10.3633C148.296 10.3633 147.726 10.5531 147.309 11.0088C146.853 11.4644 146.739 12.034 146.739 12.6795C146.739 12.6036 146.739 19.0207 146.739 19.0207Z" fill="#0B0E14"/>
<path d="M73.3782 7.93311H76.378V19.0207H73.4542V17.6538C73.1124 18.2233 72.6568 18.641 72.0492 18.9068C70.6823 19.5523 68.9356 19.4384 67.7585 18.5651C66.6193 17.6917 66.2776 16.3248 66.2776 14.9578V7.93311H69.2773V14.3882C69.2773 15.5653 69.9608 16.5146 71.1759 16.5526C71.8214 16.5526 72.391 16.3627 72.8087 15.9071C73.2643 15.4514 73.3782 14.8819 73.3782 14.2364C73.3782 14.3123 73.3782 7.93311 73.3782 7.93311Z" fill="#0B0E14"/>
<path d="M87.5038 15.7929C87.5038 18.1851 85.4153 19.3622 83.0611 19.3622C80.8588 19.3622 79.188 18.4129 78.3906 16.7042L80.8588 15.2992C81.1625 16.2106 81.922 16.7422 83.0231 16.7422C83.9344 16.7422 84.542 16.4384 84.542 15.7929C84.542 14.1601 78.7703 15.0714 78.7703 11.1604C78.7703 8.92006 80.7069 7.59106 82.9852 7.59106C84.7698 7.59106 86.3646 8.38846 87.2 9.94529L84.7698 11.3123C84.466 10.5908 83.8205 10.1731 82.9852 10.1731C82.2637 10.1731 81.6941 10.4769 81.6941 11.0844C81.808 12.6792 87.5038 11.692 87.5038 15.7929Z" fill="#0B0E14"/>
<path d="M22.5311 24.3017L16 20.5045L26.67 1.89857C27.3534 0.721456 28.5685 0 29.9355 0H38.4031V7.59427H32.0999L22.5311 24.3017Z" fill="#1A5AFF"/>
<path d="M7.0423 24.7165L0.51123 20.9193L11.1812 2.31336C11.8647 1.13625 13.0797 0.414795 14.4467 0.414795H22.9143V8.00907H16.6111L7.0423 24.7165Z" fill="#1A5AFF"/>
<path d="M1.27051 0.414795V8.00906C5.48534 8.00906 8.8648 4.62961 8.8648 0.414795H1.27051Z" fill="#1A5AFF"/>
</svg>
